<?xml version="1.0" standalone="no"?>
<!DOCTYPE svg PUBLIC "-//W3C//DTD SVG 20010904//EN"
 "http://www.w3.org/TR/2001/REC-SVG-20010904/DTD/svg10.dtd">
<svg version="1.0" xmlns="http://www.w3.org/2000/svg"
 width="256.000000pt" height="256.000000pt" viewBox="0 0 256.000000 256.000000"
 preserveAspectRatio="xMidYMid meet">
<metadata>
Created by potrace 1.14, written by Peter Selinger 2001-2017
</metadata>
<g transform="translate(0.000000,256.000000) scale(0.100000,-0.100000)"
fill="#000000" stroke="none">
<path d="M1130 2419 c-52 -10 -111 -20 -130 -22 -80 -11 -183 -28 -189 -31 -3
-2 -31 -7 -61 -10 -30 -4 -90 -13 -135 -21 -97 -17 -106 -18 -270 -45 -148
-24 -165 -30 -189 -71 -15 -25 -18 -56 -19 -172 0 -78 3 -151 6 -162 4 -11 36
-39 72 -63 l65 -43 0 -169 c0 -99 4 -179 11 -193 6 -12 55 -52 110 -87 55 -35
102 -67 104 -70 3 -4 -108 -81 -245 -170 -139 -91 -252 -171 -256 -182 -6 -21
11 -48 32 -48 45 0 68 -240 35 -359 -15 -54 -22 -66 -44 -74 -51 -17 -26 -70
38 -80 36 -5 173 -30 233 -42 13 -2 78 -14 145 -25 121 -21 139 -24 187 -34
13 -3 42 -8 65 -12 22 -3 63 -10 90 -15 28 -5 113 -21 190 -34 77 -14 151 -27
165 -30 24 -5 108 -20 161 -29 15 -2 38 2 52 9 22 11 259 179 717 507 102 73
190 144 197 158 7 14 13 57 13 97 0 78 -2 76 70 87 19 4 49 8 65 11 17 3 46 8
65 11 19 3 43 7 52 10 35 10 33 74 -2 74 -11 0 -21 4 -24 9 -16 25 -37 181
-32 231 9 99 17 120 47 135 28 15 45 47 35 64 -5 8 -96 64 -131 81 -6 3 -117
68 -248 144 -215 126 -235 141 -226 158 6 11 13 17 16 14 3 -3 14 -1 25 5 13
7 18 19 16 36 -3 25 -47 53 -373 238 -72 40 -109 62 -163 94 -29 17 -55 31
-58 31 -3 0 -18 8 -32 18 -15 11 -56 35 -92 54 l-65 35 -95 -18z"/>
</g>
</svg>
